# Wavefront OBJ file automatically generated by Tiled2Unity

# Vertices (Count = 121)
v 0 -0.319999992847443 0
v -0.319999992847443 -0.319999992847443 0
v -0.319999992847443 0 0
v 0 0 0
v -0.639999985694885 -0.319999992847443 0
v -0.639999985694885 0 0
v -0.959999978542328 -0.319999992847443 0
v -0.959999978542328 0 0
v -1.27999997138977 -0.319999992847443 0
v -1.27999997138977 0 0
v -1.59999990463257 -0.319999992847443 0
v -1.59999990463257 0 0
v -1.91999995708466 -0.319999992847443 0
v -1.91999995708466 0 0
v -2.24000000953674 -0.319999992847443 0
v -2.24000000953674 0 0
v -2.55999994277954 -0.319999992847443 0
v -2.55999994277954 0 0
v -2.87999987602234 -0.319999992847443 0
v -2.87999987602234 0 0
v -3.19999980926514 -0.319999992847443 0
v -3.19999980926514 0 0
v 0 -0.639999985694885 0
v -0.319999992847443 -0.639999985694885 0
v -0.639999985694885 -0.639999985694885 0
v -0.959999978542328 -0.639999985694885 0
v -1.27999997138977 -0.639999985694885 0
v -1.59999990463257 -0.639999985694885 0
v -1.91999995708466 -0.639999985694885 0
v -2.24000000953674 -0.639999985694885 0
v -2.55999994277954 -0.639999985694885 0
v -2.87999987602234 -0.639999985694885 0
v -3.19999980926514 -0.639999985694885 0
v 0 -0.959999978542328 0
v -0.319999992847443 -0.959999978542328 0
v -0.639999985694885 -0.959999978542328 0
v -0.959999978542328 -0.959999978542328 0
v -1.27999997138977 -0.959999978542328 0
v -1.59999990463257 -0.959999978542328 0
v -1.91999995708466 -0.959999978542328 0
v -2.24000000953674 -0.959999978542328 0
v -2.55999994277954 -0.959999978542328 0
v -2.87999987602234 -0.959999978542328 0
v -3.19999980926514 -0.959999978542328 0
v 0 -1.27999997138977 0
v -0.319999992847443 -1.27999997138977 0
v -0.639999985694885 -1.27999997138977 0
v -0.959999978542328 -1.27999997138977 0
v -1.27999997138977 -1.27999997138977 0
v -1.59999990463257 -1.27999997138977 0
v -1.91999995708466 -1.27999997138977 0
v -2.24000000953674 -1.27999997138977 0
v -2.55999994277954 -1.27999997138977 0
v -2.87999987602234 -1.27999997138977 0
v -3.19999980926514 -1.27999997138977 0
v 0 -1.59999990463257 0
v -0.319999992847443 -1.59999990463257 0
v -0.639999985694885 -1.59999990463257 0
v -0.959999978542328 -1.59999990463257 0
v -1.27999997138977 -1.59999990463257 0
v -1.59999990463257 -1.59999990463257 0
v -1.91999995708466 -1.59999990463257 0
v -2.24000000953674 -1.59999990463257 0
v -2.55999994277954 -1.59999990463257 0
v -2.87999987602234 -1.59999990463257 0
v -3.19999980926514 -1.59999990463257 0
v 0 -1.91999995708466 0
v -0.319999992847443 -1.91999995708466 0
v -0.639999985694885 -1.91999995708466 0
v -0.959999978542328 -1.91999995708466 0
v -1.27999997138977 -1.91999995708466 0
v -1.59999990463257 -1.91999995708466 0
v -1.91999995708466 -1.91999995708466 0
v -2.24000000953674 -1.91999995708466 0
v -2.55999994277954 -1.91999995708466 0
v -2.87999987602234 -1.91999995708466 0
v -3.19999980926514 -1.91999995708466 0
v 0 -2.24000000953674 0
v -0.319999992847443 -2.24000000953674 0
v -0.639999985694885 -2.24000000953674 0
v -0.959999978542328 -2.24000000953674 0
v -1.27999997138977 -2.24000000953674 0
v -1.59999990463257 -2.24000000953674 0
v -1.91999995708466 -2.24000000953674 0
v -2.24000000953674 -2.24000000953674 0
v -2.55999994277954 -2.24000000953674 0
v -2.87999987602234 -2.24000000953674 0
v -3.19999980926514 -2.24000000953674 0
v 0 -2.55999994277954 0
v -0.319999992847443 -2.55999994277954 0
v -0.639999985694885 -2.55999994277954 0
v -0.959999978542328 -2.55999994277954 0
v -1.27999997138977 -2.55999994277954 0
v -1.59999990463257 -2.55999994277954 0
v -1.91999995708466 -2.55999994277954 0
v -2.24000000953674 -2.55999994277954 0
v -2.55999994277954 -2.55999994277954 0
v -2.87999987602234 -2.55999994277954 0
v -3.19999980926514 -2.55999994277954 0
v 0 -2.87999987602234 0
v -0.319999992847443 -2.87999987602234 0
v -0.639999985694885 -2.87999987602234 0
v -0.959999978542328 -2.87999987602234 0
v -1.27999997138977 -2.87999987602234 0
v -1.59999990463257 -2.87999987602234 0
v -1.91999995708466 -2.87999987602234 0
v -2.24000000953674 -2.87999987602234 0
v -2.55999994277954 -2.87999987602234 0
v -2.87999987602234 -2.87999987602234 0
v -3.19999980926514 -2.87999987602234 0
v 0 -3.19999980926514 0
v -0.319999992847443 -3.19999980926514 0
v -0.639999985694885 -3.19999980926514 0
v -0.959999978542328 -3.19999980926514 0
v -1.27999997138977 -3.19999980926514 0
v -1.59999990463257 -3.19999980926514 0
v -1.91999995708466 -3.19999980926514 0
v -2.24000000953674 -3.19999980926514 0
v -2.55999994277954 -3.19999980926514 0
v -2.87999987602234 -3.19999980926514 0
v -3.19999980926514 -3.19999980926514 0

# Texture Coorindates (Count = 152)
vt 0.06262207 0.8126221
vt 0.1248779 0.8126221
vt 0.1248779 0.8748779
vt 0.06262207 0.8748779
vt 0.1876221 0.8126221
vt 0.2498779 0.8126221
vt 0.2498779 0.8748779
vt 0.1876221 0.8748779
vt 0.0001220703 0.8126221
vt 0.06237793 0.8126221
vt 0.06237793 0.8748779
vt 0.0001220703 0.8748779
vt 0.2501221 0.8751221
vt 0.3123779 0.8751221
vt 0.3123779 0.9373779
vt 0.2501221 0.9373779
vt 0.0001220703 0.7501221
vt 0.06237793 0.7501221
vt 0.06237793 0.8123779
vt 0.0001220703 0.8123779
vt 0.1251221 0.8751221
vt 0.1873779 0.8751221
vt 0.1873779 0.9373779
vt 0.1251221 0.9373779
vt 0.0001220703 0.6876221
vt 0.06237793 0.6876221
vt 0.06237793 0.7498779
vt 0.0001220703 0.7498779
vt 0.06262207 0.8751221
vt 0.1248779 0.8751221
vt 0.1248779 0.9373779
vt 0.06262207 0.9373779
vt 0.1876221 0.9376221
vt 0.2498779 0.9376221
vt 0.2498779 0.9998779
vt 0.1876221 0.9998779
vt 0.3751221 0.7501221
vt 0.4373779 0.7501221
vt 0.4373779 0.8123779
vt 0.3751221 0.8123779
vt 0.0001220703 0.8751221
vt 0.06237793 0.8751221
vt 0.06237793 0.9373779
vt 0.0001220703 0.9373779
vt 0.6876221 0.5001221
vt 0.7498779 0.5001221
vt 0.7498779 0.5623779
vt 0.6876221 0.5623779
vt 0.1876221 0.3126221
vt 0.2498779 0.3126221
vt 0.2498779 0.3748779
vt 0.1876221 0.3748779
vt 0.0001220703 0.5626221
vt 0.06237793 0.5626221
vt 0.06237793 0.6248779
vt 0.0001220703 0.6248779
vt 0.1251221 0.5626221
vt 0.1873779 0.5626221
vt 0.1873779 0.6248779
vt 0.1251221 0.6248779
vt 0.1876221 0.5626221
vt 0.2498779 0.5626221
vt 0.2498779 0.6248779
vt 0.1876221 0.6248779
vt 0.6251221 0.4376221
vt 0.6873779 0.4376221
vt 0.6873779 0.4998779
vt 0.6251221 0.4998779
vt 0.1876221 0.7501221
vt 0.2498779 0.7501221
vt 0.2498779 0.8123779
vt 0.1876221 0.8123779
vt 0.1251221 0.7501221
vt 0.1873779 0.7501221
vt 0.1873779 0.8123779
vt 0.1251221 0.8123779
vt 0.7501221 0.9376221
vt 0.8123779 0.9376221
vt 0.8123779 0.9998779
vt 0.7501221 0.9998779
vt 0.0001220703 0.5001221
vt 0.06237793 0.5001221
vt 0.06237793 0.5623779
vt 0.0001220703 0.5623779
vt 0.1251221 0.5001221
vt 0.1873779 0.5001221
vt 0.1873779 0.5623779
vt 0.1251221 0.5623779
vt 0.1876221 0.5001221
vt 0.2498779 0.5001221
vt 0.2498779 0.5623779
vt 0.1876221 0.5623779
vt 0.6876221 0.3751221
vt 0.7498779 0.3751221
vt 0.7498779 0.4373779
vt 0.6876221 0.4373779
vt 0.1876221 0.6876221
vt 0.2498779 0.6876221
vt 0.2498779 0.7498779
vt 0.1876221 0.7498779
vt 0.1251221 0.6876221
vt 0.1873779 0.6876221
vt 0.1873779 0.7498779
vt 0.1251221 0.7498779
vt 0.7501221 0.8751221
vt 0.8123779 0.8751221
vt 0.8123779 0.9373779
vt 0.7501221 0.9373779
vt 0.8126221 0.9376221
vt 0.8748779 0.9376221
vt 0.8748779 0.9998779
vt 0.8126221 0.9998779
vt 0.8751221 0.9376221
vt 0.9373779 0.9376221
vt 0.9373779 0.9998779
vt 0.8751221 0.9998779
vt 0.8126221 0.8126221
vt 0.8748779 0.8126221
vt 0.8748779 0.8748779
vt 0.8126221 0.8748779
vt 0.8126221 0.8751221
vt 0.8748779 0.8751221
vt 0.8748779 0.9373779
vt 0.8126221 0.9373779
vt 0.8751221 0.8751221
vt 0.9373779 0.8751221
vt 0.9373779 0.9373779
vt 0.8751221 0.9373779
vt 0.8751221 0.8126221
vt 0.9373779 0.8126221
vt 0.9373779 0.8748779
vt 0.8751221 0.8748779
vt 0.5001221 0.9376221
vt 0.5623779 0.9376221
vt 0.5623779 0.9998779
vt 0.5001221 0.9998779
vt 0.4376221 0.5626221
vt 0.4998779 0.5626221
vt 0.4998779 0.6248779
vt 0.4376221 0.6248779
vt 0.4376221 0.5001221
vt 0.4998779 0.5001221
vt 0.4998779 0.5623779
vt 0.4376221 0.5623779
vt 0.3751221 0.9376221
vt 0.4373779 0.9376221
vt 0.4373779 0.9998779
vt 0.3751221 0.9998779
vt 0.0001220703 0.0001220703
vt 0.9998779 0.0001220703
vt 0.9998779 0.9998779
vt 0.0001220703 0.9998779

# Normal
vn 0 0 -1

# Groups (Count = 4)
g mesh_[00]_[00]
f  1/1/1  2/2/1  3/3/1  4/4/1 
f  2/5/1  5/6/1  6/7/1  3/8/1 
f  5/5/1  7/6/1  8/7/1  6/8/1 
f  7/5/1  9/6/1  10/7/1  8/8/1 
f  9/5/1  11/6/1  12/7/1  10/8/1 
f  11/5/1  13/6/1  14/7/1  12/8/1 
f  13/5/1  15/6/1  16/7/1  14/8/1 
f  15/5/1  17/6/1  18/7/1  16/8/1 
f  17/5/1  19/6/1  20/7/1  18/8/1 
f  19/9/1  21/10/1  22/11/1  20/12/1 
f  23/13/1  24/14/1  2/15/1  1/16/1 
f  24/17/1  25/18/1  5/19/1  2/20/1 
f  25/17/1  26/18/1  7/19/1  5/20/1 
f  26/17/1  27/18/1  9/19/1  7/20/1 
f  27/17/1  28/18/1  11/19/1  9/20/1 
f  28/17/1  29/18/1  13/19/1  11/20/1 
f  29/17/1  30/18/1  15/19/1  13/20/1 
f  30/17/1  31/18/1  17/19/1  15/20/1 
f  31/17/1  32/18/1  19/19/1  17/20/1 
f  32/21/1  33/22/1  21/23/1  19/24/1 
f  34/13/1  35/14/1  24/15/1  23/16/1 
f  35/17/1  36/18/1  25/19/1  24/20/1 
f  36/17/1  37/18/1  26/19/1  25/20/1 
f  37/17/1  38/18/1  27/19/1  26/20/1 
f  38/17/1  39/18/1  28/19/1  27/20/1 
f  39/17/1  40/18/1  29/19/1  28/20/1 
f  40/17/1  41/18/1  30/19/1  29/20/1 
f  41/17/1  42/18/1  31/19/1  30/20/1 
f  42/17/1  43/18/1  32/19/1  31/20/1 
f  43/21/1  44/22/1  33/23/1  32/24/1 
f  45/13/1  46/14/1  35/15/1  34/16/1 
f  46/17/1  47/18/1  36/19/1  35/20/1 
f  47/17/1  48/18/1  37/19/1  36/20/1 
f  48/17/1  49/18/1  38/19/1  37/20/1 
f  49/17/1  50/18/1  39/19/1  38/20/1 
f  50/17/1  51/18/1  40/19/1  39/20/1 
f  51/17/1  52/18/1  41/19/1  40/20/1 
f  52/17/1  53/18/1  42/19/1  41/20/1 
f  53/17/1  54/18/1  43/19/1  42/20/1 
f  54/21/1  55/22/1  44/23/1  43/24/1 
f  56/13/1  57/14/1  46/15/1  45/16/1 
f  57/17/1  58/18/1  47/19/1  46/20/1 
f  58/17/1  59/18/1  48/19/1  47/20/1 
f  59/17/1  60/18/1  49/19/1  48/20/1 
f  60/17/1  61/18/1  50/19/1  49/20/1 
f  61/25/1  62/26/1  51/27/1  50/28/1 
f  62/25/1  63/26/1  52/27/1  51/28/1 
f  63/25/1  64/26/1  53/27/1  52/28/1 
f  64/25/1  65/26/1  54/27/1  53/28/1 
f  65/21/1  66/22/1  55/23/1  54/24/1 
f  67/13/1  68/14/1  57/15/1  56/16/1 
f  68/25/1  69/26/1  58/27/1  57/28/1 
f  69/25/1  70/26/1  59/27/1  58/28/1 
f  70/25/1  71/26/1  60/27/1  59/28/1 
f  71/25/1  72/26/1  61/27/1  60/28/1 
f  72/25/1  73/26/1  62/27/1  61/28/1 
f  73/25/1  74/26/1  63/27/1  62/28/1 
f  74/25/1  75/26/1  64/27/1  63/28/1 
f  75/25/1  76/26/1  65/27/1  64/28/1 
f  76/21/1  77/22/1  66/23/1  65/24/1 
f  78/13/1  79/14/1  68/15/1  67/16/1 
f  79/25/1  80/26/1  69/27/1  68/28/1 
f  80/25/1  81/26/1  70/27/1  69/28/1 
f  81/25/1  82/26/1  71/27/1  70/28/1 
f  82/25/1  83/26/1  72/27/1  71/28/1 
f  83/25/1  84/26/1  73/27/1  72/28/1 
f  84/25/1  85/26/1  74/27/1  73/28/1 
f  85/25/1  86/26/1  75/27/1  74/28/1 
f  86/25/1  87/26/1  76/27/1  75/28/1 
f  87/21/1  88/22/1  77/23/1  76/24/1 
f  89/13/1  90/14/1  79/15/1  78/16/1 
f  90/25/1  91/26/1  80/27/1  79/28/1 
f  91/25/1  92/26/1  81/27/1  80/28/1 
f  92/25/1  93/26/1  82/27/1  81/28/1 
f  93/25/1  94/26/1  83/27/1  82/28/1 
f  94/25/1  95/26/1  84/27/1  83/28/1 
f  95/25/1  96/26/1  85/27/1  84/28/1 
f  96/25/1  97/26/1  86/27/1  85/28/1 
f  97/25/1  98/26/1  87/27/1  86/28/1 
f  98/21/1  99/22/1  88/23/1  87/24/1 
f  100/13/1  101/14/1  90/15/1  89/16/1 
f  101/25/1  102/26/1  91/27/1  90/28/1 
f  102/25/1  103/26/1  92/27/1  91/28/1 
f  103/25/1  104/26/1  93/27/1  92/28/1 
f  104/25/1  105/26/1  94/27/1  93/28/1 
f  105/25/1  106/26/1  95/27/1  94/28/1 
f  106/25/1  107/26/1  96/27/1  95/28/1 
f  107/25/1  108/26/1  97/27/1  96/28/1 
f  108/25/1  109/26/1  98/27/1  97/28/1 
f  109/21/1  110/22/1  99/23/1  98/24/1 
f  111/29/1  112/30/1  101/31/1  100/32/1 
f  112/33/1  113/34/1  102/35/1  101/36/1 
f  113/33/1  114/34/1  103/35/1  102/36/1 
f  114/33/1  115/34/1  104/35/1  103/36/1 
f  115/37/1  116/38/1  105/39/1  104/40/1 
f  116/37/1  117/38/1  106/39/1  105/40/1 
f  117/33/1  118/34/1  107/35/1  106/36/1 
f  118/33/1  119/34/1  108/35/1  107/36/1 
f  119/33/1  120/34/1  109/35/1  108/36/1 
f  120/41/1  121/42/1  110/43/1  109/44/1 
g mesh_[01]_[00]
f  9/45/1  11/46/1  12/47/1  10/48/1 
f  27/45/1  28/46/1  11/47/1  9/48/1 
f  28/45/1  29/46/1  13/47/1  11/48/1 
f  38/45/1  39/46/1  28/47/1  27/48/1 
f  40/49/1  41/50/1  30/51/1  29/52/1 
f  46/53/1  47/54/1  36/55/1  35/56/1 
f  47/57/1  48/58/1  37/59/1  36/60/1 
f  48/61/1  49/62/1  38/63/1  37/64/1 
f  49/65/1  50/66/1  39/67/1  38/68/1 
f  50/69/1  51/70/1  40/71/1  39/72/1 
f  51/73/1  52/74/1  41/75/1  40/76/1 
f  53/77/1  54/78/1  43/79/1  42/80/1 
f  57/81/1  58/82/1  47/83/1  46/84/1 
f  58/85/1  59/86/1  48/87/1  47/88/1 
f  59/89/1  60/90/1  49/91/1  48/92/1 
f  60/93/1  61/94/1  50/95/1  49/96/1 
f  61/97/1  62/98/1  51/99/1  50/100/1 
f  62/101/1  63/102/1  52/103/1  51/104/1 
f  63/77/1  64/78/1  53/79/1  52/80/1 
f  64/105/1  65/106/1  54/107/1  53/108/1 
f  75/109/1  76/110/1  65/111/1  64/112/1 
f  79/113/1  80/114/1  69/115/1  68/116/1 
f  82/117/1  83/118/1  72/119/1  71/120/1 
f  86/121/1  87/122/1  76/123/1  75/124/1 
f  90/125/1  91/126/1  80/127/1  79/128/1 
f  101/129/1  102/130/1  91/131/1  90/132/1 
g mesh_[02]_[00]
f  24/17/1  25/18/1  5/19/1  2/20/1 
f  25/17/1  26/18/1  7/19/1  5/20/1 
f  26/17/1  27/18/1  9/19/1  7/20/1 
f  27/45/1  28/46/1  11/47/1  9/48/1 
f  28/17/1  29/18/1  13/19/1  11/20/1 
f  29/17/1  30/18/1  15/19/1  13/20/1 
f  30/17/1  31/18/1  17/19/1  15/20/1 
f  31/17/1  32/18/1  19/19/1  17/20/1 
f  46/133/1  47/134/1  36/135/1  35/136/1 
f  50/137/1  51/138/1  40/139/1  39/140/1 
f  53/141/1  54/142/1  43/143/1  42/144/1 
f  82/145/1  83/146/1  72/147/1  71/148/1 
g mesh_[03]_[01]
f  1/149/1  2/150/1  3/151/1  4/152/1 
f  2/149/1  5/150/1  6/151/1  3/152/1 
f  5/149/1  7/150/1  8/151/1  6/152/1 
f  7/149/1  9/150/1  10/151/1  8/152/1 
f  9/149/1  11/150/1  12/151/1  10/152/1 
f  11/149/1  13/150/1  14/151/1  12/152/1 
f  13/149/1  15/150/1  16/151/1  14/152/1 
f  15/149/1  17/150/1  18/151/1  16/152/1 
f  17/149/1  19/150/1  20/151/1  18/152/1 
f  19/149/1  21/150/1  22/151/1  20/152/1 
f  23/149/1  24/150/1  2/151/1  1/152/1 
f  27/149/1  28/150/1  11/151/1  9/152/1 
f  32/149/1  33/150/1  21/151/1  19/152/1 
f  34/149/1  35/150/1  24/151/1  23/152/1 
f  38/149/1  39/150/1  28/151/1  27/152/1 
f  40/149/1  41/150/1  30/151/1  29/152/1 
f  43/149/1  44/150/1  33/151/1  32/152/1 
f  45/149/1  46/150/1  35/151/1  34/152/1 
f  46/149/1  47/150/1  36/151/1  35/152/1 
f  47/149/1  48/150/1  37/151/1  36/152/1 
f  48/149/1  49/150/1  38/151/1  37/152/1 
f  49/149/1  50/150/1  39/151/1  38/152/1 
f  50/149/1  51/150/1  40/151/1  39/152/1 
f  51/149/1  52/150/1  41/151/1  40/152/1 
f  53/149/1  54/150/1  43/151/1  42/152/1 
f  54/149/1  55/150/1  44/151/1  43/152/1 
f  56/149/1  57/150/1  46/151/1  45/152/1 
f  57/149/1  58/150/1  47/151/1  46/152/1 
f  58/149/1  59/150/1  48/151/1  47/152/1 
f  59/149/1  60/150/1  49/151/1  48/152/1 
f  60/149/1  61/150/1  50/151/1  49/152/1 
f  61/149/1  62/150/1  51/151/1  50/152/1 
f  62/149/1  63/150/1  52/151/1  51/152/1 
f  63/149/1  64/150/1  53/151/1  52/152/1 
f  64/149/1  65/150/1  54/151/1  53/152/1 
f  65/149/1  66/150/1  55/151/1  54/152/1 
f  67/149/1  68/150/1  57/151/1  56/152/1 
f  75/149/1  76/150/1  65/151/1  64/152/1 
f  76/149/1  77/150/1  66/151/1  65/152/1 
f  78/149/1  79/150/1  68/151/1  67/152/1 
f  79/149/1  80/150/1  69/151/1  68/152/1 
f  82/149/1  83/150/1  72/151/1  71/152/1 
f  86/149/1  87/150/1  76/151/1  75/152/1 
f  87/149/1  88/150/1  77/151/1  76/152/1 
f  89/149/1  90/150/1  79/151/1  78/152/1 
f  90/149/1  91/150/1  80/151/1  79/152/1 
f  98/149/1  99/150/1  88/151/1  87/152/1 
f  100/149/1  101/150/1  90/151/1  89/152/1 
f  101/149/1  102/150/1  91/151/1  90/152/1 
f  109/149/1  110/150/1  99/151/1  98/152/1 
f  111/149/1  112/150/1  101/151/1  100/152/1 
f  112/149/1  113/150/1  102/151/1  101/152/1 
f  113/149/1  114/150/1  103/151/1  102/152/1 
f  114/149/1  115/150/1  104/151/1  103/152/1 
f  117/149/1  118/150/1  107/151/1  106/152/1 
f  118/149/1  119/150/1  108/151/1  107/152/1 
f  119/149/1  120/150/1  109/151/1  108/152/1 
f  120/149/1  121/150/1  110/151/1  109/152/1 
